<svg width="262" height="36" viewBox="0 0 262 36" fill="none" xmlns="http://www.w3.org/2000/svg">
<path d="M93.8877 10.4771H99.4985L101.263 0.715332H95.6521C83.4071 0.715332 75.4321 6.55157 73.3501 18.1198C71.2681 29.7228 77.1965 35.5243 89.4414 35.5243H95.1228L96.8519 25.5888H91.1705C85.2774 25.5888 82.7014 24.0255 83.76 18.1198C84.7834 12.1794 87.9593 10.4771 93.8877 10.4771Z" fill="#FF1923"/>
<path d="M20.9473 10.4776H26.558L28.3224 0.71582H22.7117C10.4667 0.71582 2.49164 6.55205 0.409648 18.1203C-1.67234 29.7233 4.25603 35.5248 16.501 35.5248H22.1823L23.9114 25.5893H18.2301C12.337 25.5893 9.76097 24.026 10.8196 18.1203C11.843 12.1798 15.0542 10.4776 20.9473 10.4776Z" fill="#FF1923"/>
<path d="M202.893 10.894C204.092 4.1198 198.834 0.750074 188.636 0.750074V0.715332H176.462L170.251 35.4201H183.449C193.612 35.4201 200.07 32.0503 201.269 25.3804C201.869 22.0801 200.881 19.5789 198.482 17.9114C200.846 16.2439 202.363 13.9163 202.893 10.894ZM187.542 9.46968C191.389 9.46968 192.659 9.99078 192.306 11.9014C191.989 13.7774 190.507 14.2985 186.695 14.2985H184.261L185.143 9.46968H187.542ZM185.425 26.7005H182.037L182.884 21.8717H186.272C190.118 21.8717 191.389 22.3928 191.036 24.2687C190.718 26.1794 189.271 26.7005 185.425 26.7005Z" fill="#FF1923"/>
<path d="M159.664 0.715332H147.031L130.34 32.4325L123.847 17.564L137.892 0.750074H127.164L116.684 13.3258H114.178L116.437 0.750074H106.203L99.9924 35.4548H110.226L112.449 23.0876H115.554L120.954 35.4548H128.787H131.681H165.487L159.664 0.715332ZM144.138 25.5541L151.725 10.5813L153.948 25.5541H144.138Z" fill="#FF1923"/>
<path d="M216.337 25.5541L220.748 0.715332H210.515L204.304 35.4201H227.418L229.217 25.5541H216.337Z" fill="#FF1923"/>
<path d="M260.13 10.4767L262 0.680176L238.428 0.714917L232.217 35.4197H255.719L257.519 25.5536H244.18L244.638 23.0177H251.131L252.896 13.2559H246.403L246.897 10.5115L260.13 10.4767Z" fill="#FF1923"/>
<path d="M38.9795 25.5541L43.4258 0.715332H33.157L26.9463 35.4548H50.0599L51.8596 25.5541H38.9795Z" fill="#FF1923"/>
<path d="M55.0002 35.4201H65.2338L71.4444 0.715332H61.2109L55.0002 35.4201Z" fill="#FF1923"/>
</svg>
